<svg width="35" height="35" viewBox="0 0 35 35" fill="none" xmlns="http://www.w3.org/2000/svg">
<rect x="0.49646" y="-0.000244141" width="34.1958" height="34.1958" rx="6.83916" fill="white" fill-opacity="0.08"/>
<path d="M16.6879 20.7416C15.2514 20.5918 13.9565 20.2364 12.8485 19.3709C12.7104 19.2631 12.5689 19.1587 12.4426 19.0341C11.9577 18.5676 11.9088 18.0338 12.2928 17.4849C12.6211 17.0134 13.1718 16.8871 13.746 17.1582C13.8563 17.214 13.9621 17.2782 14.0626 17.3502C15.0894 18.048 16.2997 18.4265 17.5412 18.4379C18.7827 18.4492 19.9997 18.0931 21.0391 17.4141C21.2378 17.2532 21.4669 17.1341 21.7127 17.0639C21.9413 16.9963 22.186 17.0075 22.4074 17.0959C22.6289 17.1841 22.8141 17.3443 22.9336 17.5506C23.2367 18.0456 23.2333 18.5272 22.8595 18.9111C22.2865 19.4907 21.594 19.9384 20.8304 20.223C20.0869 20.49 19.3131 20.6638 18.5267 20.7399C18.6446 20.8696 18.6951 20.9319 18.7759 21.006C19.8419 22.0787 20.9129 23.1463 21.9754 24.2206C22.1447 24.3745 22.2595 24.5792 22.3027 24.8039C22.3458 25.0285 22.3149 25.2611 22.2145 25.4667C22.1125 25.6922 21.9462 25.8825 21.7365 26.014C21.5268 26.1454 21.2832 26.2122 21.0358 26.206C20.7464 26.1775 20.4786 26.0403 20.2864 25.8221C19.4815 25.0121 18.6614 24.2173 17.8734 23.3922C17.6443 23.153 17.5366 23.1985 17.3311 23.4056C16.5211 24.2476 15.6977 25.0609 14.8709 25.876C14.7174 26.0461 14.5117 26.1605 14.2861 26.201C14.0606 26.2415 13.8279 26.206 13.6248 26.1C13.4047 25.9971 13.2189 25.833 13.0899 25.6271C12.9608 25.4213 12.8939 25.1826 12.8973 24.9397C12.9216 24.6395 13.0617 24.3605 13.288 24.1617C14.3455 23.1076 15.3996 22.0529 16.4504 20.9976C16.5211 20.9252 16.5885 20.8494 16.6879 20.7416Z" fill="white"/>
<path d="M17.5599 17.0696C16.6313 17.0642 15.7252 16.7831 14.9566 16.262C14.1879 15.7409 13.5914 15.0033 13.2425 14.1427C12.8937 13.282 12.8083 12.3372 12.9972 11.428C13.1861 10.5188 13.6407 9.68613 14.3035 9.03568C14.9663 8.38521 15.8073 7.94624 16.7199 7.77442C17.6325 7.60261 18.5755 7.70569 19.4295 8.0706C20.2834 8.43552 21.0097 9.04581 21.5163 9.82409C22.0229 10.6024 22.2869 11.5136 22.275 12.4421C22.2581 13.6793 21.7531 14.8598 20.87 15.7265C19.987 16.5932 18.7973 17.076 17.5599 17.0696ZM19.8888 12.3764C19.8875 11.9225 19.7515 11.4792 19.4981 11.1027C19.2446 10.7261 18.8852 10.4332 18.4652 10.2611C18.0452 10.0889 17.5836 10.0452 17.1388 10.1356C16.6939 10.2259 16.2859 10.4463 15.9664 10.7686C15.6469 11.091 15.4302 11.5009 15.3437 11.9465C15.2573 12.3921 15.305 12.8533 15.4809 13.2718C15.6568 13.6903 15.9528 14.0471 16.3316 14.2972C16.7104 14.5473 17.1549 14.6794 17.6088 14.6767C17.9097 14.6761 18.2076 14.616 18.4852 14.4999C18.7629 14.3838 19.0148 14.214 19.2267 14.0003C19.4386 13.7866 19.6061 13.5331 19.7197 13.2544C19.8334 12.9757 19.8908 12.6774 19.8888 12.3764Z" fill="white"/>
</svg>
