<svg width="36" height="35" viewBox="0 0 36 35" fill="none" xmlns="http://www.w3.org/2000/svg">
<rect x="0.874146" y="-0.000244141" width="34.1958" height="34.1958" rx="6.83916" fill="white" fill-opacity="0.08"/>
<path fill-rule="evenodd" clip-rule="evenodd" d="M23.0762 9.50899C23.2819 9.41436 23.5065 9.38237 23.7271 9.41628C23.9476 9.45019 24.156 9.54879 24.331 9.70197C24.5061 9.85516 24.6414 10.0574 24.7231 10.2881C24.8049 10.5187 24.8302 10.7694 24.7963 11.0144L22.9397 24.4601C22.9069 24.6979 22.8195 24.9223 22.6861 25.1116C22.5526 25.3008 22.3775 25.4485 22.1778 25.5403C21.9782 25.6321 21.7606 25.665 21.5462 25.6358C21.3317 25.6066 21.1277 25.5162 20.9538 25.3733L15.4786 20.8794C15.38 20.7984 15.2986 20.6943 15.24 20.5743C15.1815 20.4545 15.1473 20.3217 15.1399 20.1854C15.1325 20.0491 15.152 19.9128 15.1971 19.7858C15.2421 19.6589 15.3117 19.5446 15.4008 19.4509L20.5098 14.0757C20.5478 14.0357 20.5711 13.9813 20.5748 13.9232C20.5787 13.8651 20.5629 13.8075 20.5305 13.7618C20.4981 13.716 20.4515 13.6855 20.3998 13.6761C20.3482 13.6667 20.2953 13.6792 20.2515 13.7111L13.4973 18.6182C13.2078 18.8285 12.8824 18.97 12.5416 19.0338C12.2007 19.0976 11.8517 19.0823 11.5164 18.9888L8.34732 18.1062C8.17637 18.0587 8.02324 17.9523 7.90976 17.8021C7.79627 17.652 7.72821 17.4658 7.71527 17.2701C7.70233 17.0743 7.74518 16.879 7.83769 16.712C7.93022 16.5449 8.06769 16.4146 8.23055 16.3398L23.0762 9.50899Z" fill="white"/>
</svg>
