<svg width="35" height="35" viewBox="0 0 35 35" fill="none" xmlns="http://www.w3.org/2000/svg">
<rect width="34.1958" height="34.1958" rx="6.83916" fill="white" fill-opacity="0.08"/>
<path fill-rule="evenodd" clip-rule="evenodd" d="M16.8688 23.0317H18.1463C18.1463 23.0317 18.5322 22.9901 18.7292 22.7817C18.9105 22.5902 18.9047 22.2309 18.9047 22.2309C18.9047 22.2309 18.8797 20.5482 19.6754 20.3003C20.4596 20.0563 21.4667 21.9266 22.5341 22.6458C23.3413 23.19 23.9547 23.0707 23.9547 23.0707L26.8089 23.0317C26.8089 23.0317 28.302 22.9414 27.594 21.789C27.536 21.6948 27.1817 20.9366 25.4718 19.3787C23.6823 17.7481 23.9219 18.0119 26.0777 15.1914C27.3906 13.4737 27.9155 12.425 27.7515 11.9759C27.5951 11.5481 26.6295 11.6611 26.6295 11.6611L23.4159 11.6808C23.4159 11.6808 23.1777 11.6489 23.001 11.7526C22.8283 11.8542 22.7172 12.0912 22.7172 12.0912C22.7172 12.0912 22.2086 13.4204 21.5302 14.5508C20.0992 16.9361 19.5271 17.062 19.2932 16.9139C18.7492 16.5687 18.885 15.5272 18.885 14.7872C18.885 12.4757 19.2421 11.5119 18.1895 11.2624C17.8402 11.1795 17.5831 11.1248 16.6897 11.116C15.5431 11.1043 14.5726 11.1194 14.023 11.3837C13.6574 11.5595 13.3754 11.9511 13.5472 11.9736C13.7596 12.0015 14.2406 12.1009 14.4957 12.4418C14.825 12.8816 14.8134 13.8693 14.8134 13.8693C14.8134 13.8693 15.0025 16.5904 14.3715 16.9285C13.9383 17.1603 13.3441 16.6869 12.0683 14.5229C11.4146 13.4144 10.9211 12.1892 10.9211 12.1892C10.9211 12.1892 10.8259 11.9602 10.6562 11.8377C10.4502 11.6893 10.1624 11.6421 10.1624 11.6421L7.10859 11.6617C7.10859 11.6617 6.65016 11.6742 6.48188 11.8699C6.33217 12.0439 6.46998 12.4039 6.46998 12.4039C6.46998 12.4039 8.86078 17.8945 11.5678 20.6615C14.05 23.1983 16.8688 23.0317 16.8688 23.0317Z" fill="white"/>
</svg>
