<svg width="35" height="35" viewBox="0 0 35 35" fill="none" xmlns="http://www.w3.org/2000/svg">
<rect x="0.748291" y="-0.000244141" width="34.1958" height="34.1958" rx="6.83916" fill="white" fill-opacity="0.08"/>
<path fill-rule="evenodd" clip-rule="evenodd" d="M17.8462 8.54858C13.1246 8.54858 9.29724 12.3759 9.29724 17.0975C9.29724 18.7133 9.74606 20.2265 10.5266 21.5156L9.76401 24.1077C9.72023 24.2565 9.71735 24.4143 9.75567 24.5647C9.794 24.715 9.87211 24.8522 9.98181 24.9619C10.0915 25.0717 10.2287 25.1497 10.379 25.1881C10.5294 25.2264 10.6872 25.2235 10.8361 25.1797L13.4281 24.4171C14.7606 25.2234 16.2888 25.6486 17.8462 25.6465C22.5678 25.6465 26.3951 21.8191 26.3951 17.0975C26.3951 12.3759 22.5678 8.54858 17.8462 8.54858ZM15.9124 19.0322C17.6419 20.7608 19.2927 20.989 19.8757 21.0104C20.7622 21.0429 21.6257 20.3658 21.9617 19.5802C22.0041 19.4824 22.0194 19.3751 22.0062 19.2694C21.993 19.1636 21.9517 19.0635 21.8864 18.9792C21.4179 18.3807 20.7845 17.9507 20.1655 17.5233C20.0363 17.4339 19.8775 17.3981 19.7224 17.4233C19.5674 17.4485 19.428 17.5327 19.3337 17.6583L18.8208 18.4406C18.7938 18.4826 18.7518 18.5128 18.7033 18.5249C18.6548 18.5369 18.6035 18.53 18.56 18.5055C18.2121 18.3064 17.7051 17.9678 17.341 17.6036C16.9768 17.2394 16.6587 16.7556 16.4801 16.4299C16.4579 16.3885 16.4515 16.3405 16.462 16.2947C16.4726 16.249 16.4993 16.2086 16.5373 16.1811L17.3273 15.5946C17.44 15.4966 17.5127 15.3606 17.5317 15.2124C17.5506 15.0642 17.5143 14.9142 17.4299 14.791C17.0469 14.2302 16.6006 13.5172 15.9535 13.0445C15.8699 12.984 15.7721 12.9462 15.6696 12.935C15.567 12.9237 15.4634 12.9394 15.3687 12.9804C14.5822 13.3172 13.9017 14.1806 13.9342 15.0689C13.9556 15.6519 14.1838 17.3027 15.9124 19.0322Z" fill="white"/>
</svg>
