<svg width="35" height="35" viewBox="0 0 35 35" fill="none" xmlns="http://www.w3.org/2000/svg">
<rect x="0.622437" y="-0.000244141" width="34.1958" height="34.1958" rx="6.83916" fill="white" fill-opacity="0.08"/>
<path d="M26.6542 11.0103C25.9494 10.1725 24.6481 9.83069 22.1628 9.83069H13.1414C10.5992 9.83069 9.27584 10.1945 8.57365 11.0865C7.88904 11.9563 7.88904 13.2378 7.88904 15.0114V18.3919C7.88904 21.8279 8.70133 23.5725 13.1414 23.5725H22.1629C24.3181 23.5725 25.5123 23.2709 26.2849 22.5315C27.0772 21.7732 27.4153 20.5353 27.4153 18.3919V15.0114C27.4153 13.141 27.3624 11.8519 26.6542 11.0103ZM20.425 17.1683L16.3283 19.3093C16.2324 19.3596 16.125 19.3842 16.0167 19.3808C15.9084 19.3775 15.8028 19.3462 15.7102 19.29C15.6175 19.2339 15.5409 19.1548 15.4877 19.0604C15.4345 18.966 15.4067 18.8594 15.4067 18.7511V14.4828C15.4067 14.3746 15.4346 14.2682 15.4876 14.174C15.5407 14.0797 15.6171 14.0006 15.7096 13.9445C15.802 13.8883 15.9074 13.8569 16.0155 13.8533C16.1237 13.8497 16.2309 13.874 16.3269 13.9238L20.4235 16.0511C20.5258 16.1041 20.6115 16.1843 20.6713 16.2827C20.7313 16.3811 20.763 16.4941 20.7632 16.6093C20.7632 16.7245 20.7319 16.8375 20.6722 16.9361C20.6126 17.0347 20.527 17.115 20.425 17.1683Z" fill="white"/>
</svg>
