<svg width="103" height="98" viewBox="0 0 103 98" fill="none" xmlns="http://www.w3.org/2000/svg">
<g clip-path="url(#clip0_40_1890)">
<g clip-path="url(#clip1_40_1890)">
<path fill-rule="evenodd" clip-rule="evenodd" d="M44.1843 0.405158C43.9145 -0.150762 43.0366 5.49123 35.4333 11.1924C27.8299 16.8935 33.7118 25.1495 33.62 24.9129C33.5281 24.6763 33.97 18.5553 41.0799 14.4274C47.8224 8.51331 45.5328 3.19067 44.1843 0.399246V0.405158ZM47.8625 1.90141C51.4089 3.67562 62.1625 14.1493 53.492 22.0742C44.9131 29.1711 47.2314 38.1248 46.5369 38.9647C45.8427 39.8045 33.5626 24.7001 42.6465 16.7042C51.7302 8.7085 46.5369 1.2213 47.8625 1.90141ZM58.645 9.9563C63.8093 12.6709 74.7122 26.3204 64.9574 34.9135C57.4744 41.3066 52.7747 47.3804 52.2754 49.1368C51.4778 46.4991 46.8814 33.3345 54.4559 25.7054C63.0638 17.0117 58.2375 9.73753 58.6507 9.9504L58.645 9.9563ZM35.9383 24.8716C36.0358 27.5151 37.3729 32.5125 43.9719 39.5147C50.571 46.5169 45.8714 52.4131 45.8714 52.4131C45.8714 52.4131 44.7753 48.5691 37.8893 43.9621C32.1911 38.8524 35.9383 24.8716 35.9383 24.8716Z" fill="#FB7104"/>
<path fill-rule="evenodd" clip-rule="evenodd" d="M1 84.5333L102.736 84.5393L102.485 83.7363H1.22169L1 84.5333Z" fill="#FB7104"/>
<path fill-rule="evenodd" clip-rule="evenodd" d="M79.6481 69.7215L82.684 55.7567C85.9375 55.7567 93.1357 54.8 94.2274 58.0816L101.782 80.8003L89.5948 80.7234L84.9689 61.0754L81.4964 80.8161L74.4281 80.8466L64.0327 63.0142L65.741 80.8058H62.1731L59.8545 55.8339C63.215 55.8339 67.2028 55.7001 70.5464 55.6847L79.6481 69.7215Z" fill="#FB7104"/>
<path fill-rule="evenodd" clip-rule="evenodd" d="M53.965 55.6249L55.4231 80.8446L42.4491 80.8135L43.448 55.6664L53.965 55.6249Z" fill="#FB7104"/>
<path fill-rule="evenodd" clip-rule="evenodd" d="M23.9165 80.8447C23.4151 74.237 27.1057 69.1187 21.7247 68.3895C20.4528 68.1606 19.1648 68.017 17.8707 67.9597L15.414 80.8447H3.58149C3.29886 80.8288 3.02006 80.7758 2.75321 80.6878C2.53619 80.573 2.36015 80.4014 2.24696 80.1944C2.13376 79.9874 2.0884 79.7542 2.1165 79.5233L9.49212 57.8642C10.4838 55.1058 19.4709 55.6827 24.2547 55.6617C28.6778 55.6617 32.4642 56.0026 35.0167 57.2927C37.3718 58.4884 38.0819 60.2348 38.0198 62.0126C38.0568 62.7369 37.8624 63.455 37.4612 64.0766C37.0602 64.6982 36.4703 65.1953 35.766 65.5055C34.1433 66.3603 33.3319 66.5961 28.7341 67.3094C33.2417 68.1538 34.1546 68.3895 34.9321 69.6114C36.4929 72.0504 34.6729 77.5516 36.3351 80.8447H23.9165ZM20.0344 57.9063C20.0005 57.9063 19.9724 57.9483 19.9611 57.9901C19.5442 59.3485 18.3778 65.0701 18.2314 65.9513C18.2314 66.0142 18.3272 66.0294 18.3947 66.0294C19.9724 66.0978 22.3389 66.1082 23.556 65.7729C27.6467 64.6347 27.81 60.9587 26.5141 59.0914C25.4548 57.5811 21.4486 57.7332 20.0344 57.9063Z" fill="#FB7104"/>
<path fill-rule="evenodd" clip-rule="evenodd" d="M14.5079 89.3343H4.31382V95.1767H14.5079V93.2019H9.19251V91.5425H17.7087V94.768C17.7502 95.098 17.7057 95.434 17.5796 95.7409C17.4536 96.0495 17.2504 96.3171 16.9903 96.5206C16.5076 96.83 15.594 96.9822 14.2321 96.9822H4.5322C3.17221 96.9822 2.2528 96.8283 1.77393 96.5206C1.51388 96.3171 1.31068 96.0495 1.18464 95.7409C1.0586 95.434 1.01411 95.098 1.05563 94.768V89.8361C1.01352 89.5061 1.05773 89.1702 1.18382 88.8624C1.30991 88.5546 1.51343 88.2871 1.77393 88.0836C2.2528 87.7758 3.17221 87.622 4.5322 87.622H14.2321C15.5825 87.622 16.5019 87.7741 16.9788 88.0785C17.2316 88.2571 17.4325 88.5016 17.5609 88.7863C17.6893 89.071 17.7403 89.3856 17.7087 89.6968V89.9413L14.5137 90.3157V89.3223L14.5079 89.3343ZM33.9478 89.2232H26.4777V91.8058H33.9478C34.3389 91.8306 34.7307 91.7716 35.0972 91.6306C35.2021 91.5775 35.2887 91.4929 35.3452 91.3886C35.4017 91.2835 35.4255 91.1646 35.4132 91.0458V89.9712C35.4255 89.8532 35.4017 89.7335 35.3452 89.6284C35.2887 89.5241 35.2021 89.4395 35.0972 89.3865C34.7307 89.2463 34.3389 89.1864 33.9478 89.2121V89.2232ZM23.2482 96.9523V87.6049H35.3156C36.1363 87.5493 36.9583 87.6963 37.7118 88.0314C37.9521 88.1682 38.1494 88.3717 38.2807 88.6179C38.4119 88.8641 38.4717 89.1428 38.453 89.4215V91.6126C38.4712 91.8904 38.411 92.1657 38.2796 92.4094C38.1483 92.6522 37.9512 92.8522 37.7118 92.9856C36.9577 93.3198 36.1359 93.4635 35.3156 93.4062H33.4767L39.838 96.9121H35.1833L29.5749 93.4062H26.5063V96.9121L23.2482 96.9523ZM46.8083 95.1647H57.5885V89.3223H46.8083V95.1647ZM43.55 89.819C43.5091 89.489 43.5532 89.1548 43.6781 88.847C43.8031 88.5393 44.0046 88.2708 44.2627 88.0665C44.7396 87.757 45.6532 87.6049 47.0265 87.6049H57.3701C58.755 87.6049 59.6686 87.757 60.1456 88.0665C60.4008 88.2725 60.5994 88.5427 60.722 88.8496C60.8449 89.1565 60.8879 89.4908 60.8467 89.819V94.7441C60.8885 95.0749 60.8437 95.41 60.7178 95.7178C60.5916 96.0256 60.3885 96.294 60.1283 96.4975C59.6456 96.8069 58.732 96.9583 57.3701 96.9583H47.0265C45.6532 96.9583 44.7281 96.8069 44.2627 96.4975C44.0046 96.2923 43.8031 96.0239 43.6781 95.717C43.5532 95.4083 43.5091 95.0741 43.55 94.7441V89.819ZM69.7593 87.6108V95.2057H79.0685V87.6108H82.3608V94.7441C82.402 95.0766 82.3555 95.4135 82.2261 95.7212C82.0966 96.029 81.8897 96.2974 81.6254 96.4975C81.1351 96.8087 80.2042 96.9642 78.8329 96.9642H69.9717C68.604 96.9642 67.6807 96.8104 67.2023 96.5026C66.9411 96.3008 66.7366 96.0324 66.6095 95.7246C66.4825 95.4169 66.4371 95.0809 66.4783 94.7501V87.6108H69.7593ZM88.3148 96.9583V87.6108H100.382C101.205 87.5536 102.029 87.6989 102.784 88.0374C103.024 88.1742 103.22 88.3777 103.35 88.6239C103.48 88.8701 103.539 89.1488 103.519 89.4283V91.4903C103.537 91.7699 103.478 92.0486 103.346 92.2948C103.216 92.541 103.018 92.7436 102.778 92.8804C102.024 93.2164 101.203 93.3626 100.382 93.307H91.5266V96.9523L88.3148 96.9583ZM98.9916 89.2292H91.5207V91.7007H98.9916C99.3823 91.7254 99.7738 91.6656 100.141 91.5254C100.245 91.4724 100.331 91.3878 100.388 91.2835C100.445 91.1783 100.469 91.0595 100.457 90.9415V89.9772C100.469 89.8575 100.445 89.7387 100.388 89.6344C100.331 89.5309 100.245 89.4463 100.141 89.3933C99.767 89.2505 99.366 89.1932 98.9677 89.2232L98.9916 89.2292Z" fill="white"/>
</g>
</g>
<defs>
<clipPath id="clip0_40_1890">
<rect width="103" height="98" fill="white"/>
</clipPath>
<clipPath id="clip1_40_1890">
<rect width="102.587" height="97.458" fill="white" transform="translate(1)"/>
</clipPath>
</defs>
</svg>
