<svg width="73.000000" height="68.000000" viewBox="0 0 73 68" fill="none" xmlns="http://www.w3.org/2000/svg" xmlns:xlink="http://www.w3.org/1999/xlink">
	<desc>
			Created with Pixso.
	</desc>
	<defs/>
	<path id="Vector" d="M30.55 0.02C30.38 -0.34 29.66 3.55 24.17 7.54C18.62 11.49 22.86 17.3 22.79 17.08C22.72 16.91 23.02 12.64 28.25 9.76C33.19 5.64 31.48 1.95 30.55 0.02ZM33.22 1.03C35.79 2.3 43.72 9.56 37.33 15.04C31.1 20.01 32.72 26.25 32.26 26.84C31.76 27.43 22.76 16.91 29.43 11.32C36.01 5.74 32.22 0.57 33.21 1.03L33.22 1.03ZM41.12 6.65C44.89 8.58 52.86 18.05 45.72 24.03C40.26 28.47 36.87 32.66 36.48 33.97C35.89 32.1 32.53 22.99 38.06 17.63C44.34 11.55 40.82 6.48 41.12 6.65ZM24.53 17.04C24.6 18.91 25.58 22.37 30.41 27.27C35.24 32.17 31.83 36.23 31.83 36.23C31.83 36.23 31 33.55 26.04 30.31C21.73 26.82 24.52 17.04 24.52 17.04L24.53 17.04Z" fill="#EE721A" fill-opacity="1.000000" fill-rule="evenodd"/>
	<path id="Vector" d="M0 59.26L72.98 59.26L72.81 58.74L0.16 58.74L0 59.26Z" fill="#EE721A" fill-opacity="1.000000" fill-rule="evenodd"/>
	<path id="Vector" d="M56.77 49.33L58.98 39.4C61.38 39.4 66.65 38.74 67.46 41.02L73 57.16L64.15 57.09L60.75 43.14L58.22 57.15L53.08 57.15L45.41 44.54L46.64 57.22L44 57.22L42.36 39.51C44.83 39.51 47.79 39.41 50.19 39.41L56.77 49.31L56.77 49.33Z" fill="#EE721A" fill-opacity="1.000000" fill-rule="evenodd"/>
	<path id="Vector" d="M38.02 39.29L39.07 57.17L29.57 57.17L30.29 39.33L38.02 39.29Z" fill="#EE721A" fill-opacity="1.000000" fill-rule="evenodd"/>
	<path id="Vector" d="M15.98 57.21C15.58 52.53 18.34 48.85 14.4 48.42C13.48 48.25 12.48 48.19 11.57 48.09L9.83 57.21L1.15 57.21C0.98 57.21 0.72 57.14 0.56 57.11C0.39 57.04 0.23 56.94 0.16 56.71C0.1 56.61 0.06 56.39 0.06 56.22L5.49 40.82C6.22 38.87 12.77 39.28 16.29 39.25C19.51 39.25 22.3 39.47 24.11 40.4C25.82 41.28 26.35 42.45 26.32 43.77C26.32 44.26 26.22 44.81 25.89 45.24C25.56 45.67 25.17 46.06 24.67 46.28C23.51 46.87 22.93 47.1 19.53 47.59C22.86 48.17 23.51 48.41 24.07 49.22C25.22 50.91 23.9 54.87 25.12 57.18L15.98 57.18L15.98 57.21ZM13.19 40.97C12.79 42.01 11.96 46.07 11.81 46.69C11.81 46.76 11.87 46.76 11.91 46.76C13.06 46.82 14.8 46.82 15.69 46.59C18.68 45.77 18.81 43.16 17.82 41.85C17.13 40.7 14.24 40.8 13.19 40.96L13.19 40.97Z" fill="#EE721A" fill-opacity="1.000000" fill-rule="evenodd"/>
	<path id="Vector" d="M9.67 62.59L2.36 62.59L2.36 66.61L9.67 66.61L9.67 65.24L5.89 65.24L5.89 64.13L11.94 64.13L11.94 66.42C11.94 66.61 11.94 66.92 11.84 67.04C11.74 67.23 11.65 67.47 11.41 67.57C11.05 67.76 10.39 67.89 9.44 67.89L2.53 67.89C1.58 67.89 0.92 67.79 0.56 67.57C0.39 67.47 0.2 67.24 0.13 67.04C0.03 66.85 0.03 66.61 0.03 66.42L0.03 63.03C-0.04 62.84 0.03 62.53 0.13 62.41C0.23 62.22 0.32 61.98 0.56 61.88C0.92 61.69 1.58 61.56 2.53 61.56L9.44 61.56C10.39 61.56 11.05 61.66 11.41 61.88C11.58 61.98 11.74 62.21 11.84 62.38C11.94 62.54 11.94 62.8 11.94 62.99L11.94 63.16L9.63 63.35L9.63 62.6L9.67 62.6L9.67 62.59ZM23.48 62.52L18.15 62.52L18.15 64.32L23.48 64.32C23.81 64.32 24.01 64.32 24.34 64.22C24.41 64.15 24.44 64.12 24.51 64.05C24.58 63.98 24.58 63.88 24.58 63.86L24.58 63.07C24.58 63.01 24.58 62.9 24.51 62.88C24.44 62.86 24.41 62.78 24.34 62.71C24.01 62.52 23.75 62.52 23.48 62.52ZM15.81 67.88L15.81 61.44L24.36 61.44C24.95 61.38 25.55 61.51 26.07 61.77C26.24 61.87 26.4 61.96 26.5 62.2C26.6 62.37 26.6 62.56 26.6 62.72L26.6 64.26C26.6 64.43 26.53 64.62 26.5 64.79C26.4 64.96 26.31 65.12 26.07 65.22C25.54 65.41 24.95 65.58 24.36 65.55L23.05 65.55L27.59 67.96L24.23 67.96L20.24 65.55L18.07 65.55L18.07 67.96L15.83 67.96L15.83 67.89L15.8 67.89L15.81 67.88ZM32.59 66.61L40.31 66.61L40.31 62.59L32.59 62.59L32.59 66.61ZM30.35 62.95C30.35 62.76 30.35 62.46 30.45 62.33C30.52 62.14 30.64 61.9 30.88 61.8C31.24 61.61 31.9 61.48 32.85 61.48L40.15 61.48C41.17 61.48 41.76 61.58 42.12 61.8C42.29 61.9 42.45 62.16 42.55 62.33C42.62 62.52 42.65 62.76 42.62 62.95L42.62 66.34C42.62 66.53 42.62 66.84 42.52 66.96C42.42 67.15 42.33 67.39 42.09 67.49C41.73 67.68 41.07 67.82 40.12 67.82L32.81 67.82C31.86 67.82 31.21 67.71 30.84 67.49C30.67 67.39 30.52 67.13 30.41 66.96C30.35 66.77 30.31 66.53 30.31 66.34L30.31 62.95L30.35 62.95ZM48.93 61.38L48.93 66.67L55.54 66.67L55.54 61.38L57.87 61.38L57.87 66.28C57.87 66.47 57.87 66.77 57.77 66.89C57.67 67.06 57.58 67.32 57.34 67.42C56.98 67.61 56.32 67.75 55.37 67.75L49.02 67.75C48.07 67.75 47.42 67.65 47.05 67.42C46.88 67.32 46.69 67.1 46.62 66.89C46.52 66.7 46.52 66.4 46.52 66.28L46.52 61.38L48.92 61.38L48.93 61.38ZM62.16 67.88L62.16 61.44L70.71 61.44C71.3 61.38 71.9 61.51 72.42 61.77C72.59 61.87 72.75 61.96 72.85 62.2C72.95 62.37 72.95 62.56 72.95 62.72L72.95 64.16C72.95 64.33 72.95 64.52 72.85 64.69C72.75 64.86 72.65 65.02 72.42 65.12C71.89 65.31 71.3 65.48 70.71 65.44L64.36 65.44L64.36 68L62.16 67.89L62.16 67.88ZM69.72 62.52L64.4 62.52L64.4 64.22L69.72 64.22C70.05 64.22 70.26 64.22 70.58 64.12L70.75 63.95C70.82 63.88 70.82 63.78 70.82 63.76L70.82 63.07C70.82 63.01 70.82 62.9 70.75 62.88L70.58 62.71C70.36 62.52 70.05 62.52 69.72 62.52Z" fill="#0C3E64" fill-opacity="1.000000" fill-rule="evenodd"/>
</svg>
